<?xml version="1.0" encoding="iso-8859-1"?>
<!-- Generator: Adobe Illustrator 18.1.1, SVG Export Plug-In . SVG Version: 6.00 Build 0)  -->
<svg version="1.1" id="Capa_1" xmlns="http://www.w3.org/2000/svg" xmlns:xlink="http://www.w3.org/1999/xlink" x="0px" y="0px"
	 viewBox="0 0 195.742 195.742" style="enable-background:new 0 0 195.742 195.742;" xml:space="preserve">
<g>
	<g>
		<path style="fill:#010002;" d="M99.051,65.139c17.952,0,32.546-14.605,32.546-32.55C131.597,14.623,117.003,0,99.051,0
			c-17.948,0-32.55,14.623-32.55,32.589C66.502,50.533,81.103,65.139,99.051,65.139z M99.051,4.459
			c15.482,0,28.087,12.615,28.087,28.13c0,15.482-12.601,28.08-28.087,28.08c-15.493,0-28.09-12.598-28.09-28.08
			C70.961,17.078,83.558,4.459,99.051,4.459z"/>
		<path style="fill:#010002;" d="M171.569,105.827c-2.906-34.497-42.413-34.955-43.605-34.804h-60.79
			c-15.335,0-26.068,5.923-26.068,5.923c-17.365,10.543-16.799,24.2-16.828,24.565l-0.089,50.229
			c-0.104,0.716-0.014,6.37,3.457,10.4c2.409,2.788,5.78,4.202,10.035,4.202h18.868l-0.014,27.718l88.845,0.075v-3.464
			c2.752,3.092,6.728,5.071,11.184,5.071c8.278,0,15.013-6.735,15.013-15.135L171.569,105.827z M39.592,161.871l-1.915,0.011
			c-2.713,0-4.842-0.784-6.342-2.319c-2.749-2.817-2.713-7.344-2.709-7.487l0.1-50.333c0.072-0.698,1.46-11.721,12.279-19.254
			L39.592,161.871z M44.051,161.7l1.467-81.68c3.11-1.07,11.438-3.554,23.424-4.423l17.586,65.98
			c3.389,7.788,6.027,17.654,4.549,19.913c-0.075,0.104-0.14,0.211-0.558,0.211C90.519,161.7,44.051,161.7,44.051,161.7z
			 M167.114,180.714c0,5.826-4.738,10.565-10.554,10.565c-5.826,0-10.561-4.738-10.561-10.676l-0.025-2.226v-79.39h-5.103
			l0.039,90.677l-79.912-0.057l0.014-23.449h29.508h9.355c7.637,0,13.847-6.22,13.847-13.861s-6.209-13.847-13.847-13.847h-9.591
			L73.53,75.485h54.459c1.525-0.011,36.54-0.104,39.124,30.535V180.714z M91.89,142.914h7.984c5.175,0,9.387,4.212,9.387,9.387
			c0,5.186-4.212,9.398-9.387,9.398l-4.227,0.011C96.757,156.514,93.858,147.882,91.89,142.914z"/>
	</g>
</g>
<g>
</g>
<g>
</g>
<g>
</g>
<g>
</g>
<g>
</g>
<g>
</g>
<g>
</g>
<g>
</g>
<g>
</g>
<g>
</g>
<g>
</g>
<g>
</g>
<g>
</g>
<g>
</g>
<g>
</g>
</svg>
