<svg width="17" height="15" viewBox="0 0 17 15" fill="none" xmlns="http://www.w3.org/2000/svg">
<path d="M0 7.72567C0 7.34598 0.282154 7.03218 0.648229 6.98252L0.75 6.97567L13.934 6.97627L9.17101 2.23275C8.87749 1.94048 8.87647 1.46561 9.16873 1.17209C9.43442 0.905249 9.85103 0.880145 10.1451 1.09737L10.2294 1.1698L16.2794 7.1938C16.3181 7.23233 16.3517 7.27402 16.3802 7.31805C16.3883 7.33131 16.3965 7.34486 16.4042 7.35869C16.4114 7.37055 16.4178 7.38286 16.4239 7.39531C16.4324 7.41342 16.4407 7.43213 16.4482 7.45122C16.4543 7.46594 16.4594 7.48025 16.464 7.49468C16.4696 7.51258 16.4749 7.53165 16.4796 7.551C16.483 7.56452 16.4857 7.57753 16.4881 7.59059C16.4914 7.61002 16.4943 7.63013 16.4963 7.65048C16.498 7.66599 16.4991 7.68137 16.4997 7.69676C16.4998 7.70609 16.5 7.71586 16.5 7.72567L16.4996 7.75473C16.4991 7.76945 16.498 7.78415 16.4966 7.79883L16.5 7.72567C16.5 7.773 16.4956 7.81931 16.4872 7.8642C16.4853 7.87493 16.483 7.88594 16.4804 7.8969C16.4751 7.91948 16.4689 7.94122 16.4618 7.96253C16.4584 7.97312 16.4543 7.98444 16.45 7.99567C16.4412 8.01823 16.4317 8.03975 16.4212 8.0607C16.4163 8.07056 16.4109 8.08087 16.4052 8.09108C16.3958 8.10774 16.3861 8.12357 16.3759 8.139C16.3687 8.14992 16.3607 8.16129 16.3524 8.17248L16.3459 8.18112C16.3257 8.20752 16.3038 8.23254 16.2803 8.256L16.2794 8.2567L10.2294 14.2817C9.93593 14.574 9.46106 14.573 9.16877 14.2795C8.90306 14.0127 8.87971 13.596 9.09818 13.3028L9.17097 13.2188L13.932 8.47627L0.75 8.47567C0.335786 8.47567 0 8.13989 0 7.72567Z" fill="black"/>
</svg>
